<svg width="120" height="120" viewBox="0 0 120 120" fill="none" xmlns="http://www.w3.org/2000/svg">
<path d="M107.499 19.9999H94.1661V29.9999C94.1661 30.9629 93.9765 31.9165 93.6079 32.8062C93.2394 33.696 92.6992 34.5044 92.0183 35.1853C91.3373 35.8663 90.5289 36.4065 89.6392 36.775C88.7494 37.1435 87.7958 37.3332 86.8328 37.3332C85.8698 37.3332 84.9162 37.1435 84.0265 36.775C83.1367 36.4065 82.3283 35.8663 81.6474 35.1853C80.9664 34.5044 80.4262 33.696 80.0577 32.8062C79.6892 31.9165 79.4995 30.9629 79.4995 29.9999V19.9999H40.6661V29.9999C40.6661 31.9448 39.8935 33.8101 38.5183 35.1853C37.143 36.5606 35.2777 37.3332 33.3328 37.3332C31.3879 37.3332 29.5226 36.5606 28.1474 35.1853C26.7721 33.8101 25.9995 31.9448 25.9995 29.9999V19.9999H12.6661C11.8729 19.9909 11.0859 20.141 10.3517 20.4414C9.61743 20.7419 8.95091 21.1865 8.39152 21.749C7.83212 22.3115 7.39121 22.9805 7.09485 23.7163C6.7985 24.4522 6.65272 25.24 6.66614 26.0332V100.633C6.6529 101.412 6.79329 102.187 7.07929 102.912C7.3653 103.636 7.79132 104.298 8.33301 104.858C8.87471 105.419 9.52147 105.867 10.2364 106.177C10.9513 106.487 11.7203 106.654 12.4995 106.667H107.499C108.279 106.654 109.048 106.487 109.763 106.177C110.477 105.867 111.124 105.419 111.666 104.858C112.208 104.298 112.634 103.636 112.92 102.912C113.206 102.187 113.346 101.412 113.333 100.633V26.0332C113.346 25.254 113.206 24.4798 112.92 23.7549C112.634 23.03 112.208 22.3685 111.666 21.8082C111.124 21.2479 110.477 20.7999 109.763 20.4896C109.048 20.1793 108.279 20.0129 107.499 19.9999ZM33.3328 86.6666H26.6661V79.9999H33.3328V86.6666ZM33.3328 69.9999H26.6661V63.3332H33.3328V69.9999ZM33.3328 53.3332H26.6661V46.6666H33.3328V53.3332ZM53.3328 86.6666H46.6661V79.9999H53.3328V86.6666ZM53.3328 69.9999H46.6661V63.3332H53.3328V69.9999ZM53.3328 53.3332H46.6661V46.6666H53.3328V53.3332ZM73.3328 86.6666H66.6661V79.9999H73.3328V86.6666ZM73.3328 69.9999H66.6661V63.3332H73.3328V69.9999ZM73.3328 53.3332H66.6661V46.6666H73.3328V53.3332ZM93.3328 86.6666H86.6661V79.9999H93.3328V86.6666ZM93.3328 69.9999H86.6661V63.3332H93.3328V69.9999ZM93.3328 53.3332H86.6661V46.6666H93.3328V53.3332Z" fill="#131316" fill-opacity="0.05"/>
<path d="M33.3333 33.3333C34.2174 33.3333 35.0652 32.9821 35.6904 32.357C36.3155 31.7319 36.6667 30.884 36.6667 30V9.99996C36.6667 9.1159 36.3155 8.26806 35.6904 7.64294C35.0652 7.01782 34.2174 6.66663 33.3333 6.66663C32.4493 6.66663 31.6014 7.01782 30.9763 7.64294C30.3512 8.26806 30 9.1159 30 9.99996V30C30 30.884 30.3512 31.7319 30.9763 32.357C31.6014 32.9821 32.4493 33.3333 33.3333 33.3333Z" fill="#131316" fill-opacity="0.05"/>
<path d="M86.6667 33.3333C87.5508 33.3333 88.3986 32.9821 89.0237 32.357C89.6489 31.7319 90 30.884 90 30V9.99996C90 9.1159 89.6489 8.26806 89.0237 7.64294C88.3986 7.01782 87.5508 6.66663 86.6667 6.66663C85.7827 6.66663 84.9348 7.01782 84.3097 7.64294C83.6846 8.26806 83.3334 9.1159 83.3334 9.99996V30C83.3334 30.884 83.6846 31.7319 84.3097 32.357C84.9348 32.9821 85.7827 33.3333 86.6667 33.3333Z" fill="#131316" fill-opacity="0.05"/>
</svg>
