<svg width="22" height="24" viewBox="0 0 22 24" fill="none" xmlns="http://www.w3.org/2000/svg">
<path d="M14.7339 9.17434C13.8368 9.92108 13.3885 10.9597 13.5109 12.0077L13.4899 11.9902C13.6157 13.2235 13.078 14.4399 12.0203 15.315C10.9626 16.1902 9.49233 16.635 8.00177 16.5309L8.02282 16.5483C6.2181 16.4093 4.50181 17.2215 3.73162 18.579C2.96144 19.9365 4.2189 20.4856 5.50113 21.5456C6.78336 22.6055 7.81502 23.9486 9.45507 23.3102C11.0951 22.6717 12.0752 21.251 11.9056 19.7579L11.9278 19.7753C11.802 18.5421 12.3397 17.3257 13.3974 16.4506C14.4551 15.5754 15.9254 15.1306 17.4159 15.2347L17.3937 15.2173C19.3772 15.3649 21.2228 14.3642 21.851 12.8007C22.4792 11.2372 21.0101 10.5697 19.3147 9.70539C17.6192 8.84109 16.1428 8.00701 14.7374 9.17434H14.7339Z" fill="white"/>
<path d="M6.91254 14.3112C7.80975 13.5646 8.25771 12.5258 8.13432 11.4779L8.15654 11.4953C8.03061 10.2617 8.56858 9.04495 9.62685 8.16974C10.6851 7.29453 12.156 6.84996 13.647 6.95467L13.6247 6.93725C15.429 7.0771 17.1455 6.26586 17.9164 4.90898C18.6873 3.55209 16.6498 2.87242 15.3684 1.81225C14.087 0.752071 13.8369 -0.460934 12.1969 0.176875C10.5569 0.814683 9.57641 2.23486 9.74544 3.72764L9.72439 3.71023C9.85021 4.94347 9.31255 6.15989 8.25482 7.03502C7.19709 7.91015 5.72687 8.355 4.23631 8.25089L4.25735 8.26831C2.27398 8.12114 0.867185 8.47105 0.239323 10.0346C-0.388538 11.5981 0.239331 12.0079 1.88379 12.9946C3.57926 13.8587 5.50957 15.4785 6.91488 14.3112H6.91254Z" fill="white"/>
</svg>
