<svg width="118" height="120" viewBox="0 0 118 120" fill="none" xmlns="http://www.w3.org/2000/svg">
<g clip-path="url(#clip0_143_152)">
<path d="M1.89192 2.28033C2.24369 1.4123 2.91968 0.712055 3.77927 0.325275C4.63885 -0.0615045 5.61584 -0.105039 6.507 0.203727C7.39816 0.512494 8.13487 1.14979 8.56386 1.98303C8.99285 2.81628 9.0811 3.78131 8.81025 4.67739C3.17736 20.7178 14.3583 32.6971 22.8834 39.1132L26.3274 34.223C27.4855 32.5829 30.0746 31.2192 32.0876 31.1952L51.4177 31.2793C53.779 31.3499 56.0772 32.0515 58.0692 33.3098L115.029 72.8822C116.354 73.806 117.255 75.2122 117.536 76.7931C117.816 78.374 117.454 80.0007 116.526 81.317L90.6418 118.012C88.7015 120.745 85.6031 120.415 82.8382 118.504L25.8787 78.9259C24.2416 77.7785 22.3498 75.3033 21.6828 73.4109L15.6316 54.5168C14.9646 52.6304 15.3708 49.7528 16.5289 48.1127L18.6269 45.1329C7.1792 36.4398 -4.70505 21.0783 1.89192 2.28033V2.28033ZM28.395 58.4999C29.4443 59.2277 30.6281 59.7435 31.8787 60.0178C33.1293 60.2921 34.4222 60.3196 35.6835 60.0986C36.9448 59.8777 38.1498 59.4127 39.2297 58.7302C40.3095 58.0477 41.2431 57.161 41.977 56.1209C43.463 54.0161 44.0453 51.4132 43.5963 48.8835C43.1473 46.3537 41.7035 44.1038 39.582 42.6277C37.9187 41.4731 35.933 40.8623 33.9022 40.8806C31.8715 40.8989 29.8973 41.5455 28.2555 42.7298C29.9048 43.7151 31.0386 44.2918 31.2509 44.3819C32.0025 44.737 32.6101 45.3345 32.9741 46.0765C33.3381 46.8186 33.437 47.6611 33.2545 48.4661C33.072 49.271 32.619 49.9907 31.9696 50.5072C31.3203 51.0237 30.5131 51.3063 29.6804 51.3088C29.159 51.3088 28.6254 51.1886 28.1221 50.9543C26.9458 50.4016 25.6847 49.7468 24.3689 48.9718C24.0662 50.7744 24.2836 52.6252 24.9958 54.3108C25.7081 55.9965 26.8864 57.4486 28.395 58.4999V58.4999Z" fill="#131316" fill-opacity="0.05"/>
</g>
<defs>
<clipPath id="clip0_143_152">
<rect width="117.628" height="120" fill="white"/>
</clipPath>
</defs>
</svg>
