<svg width="135" height="120" viewBox="0 0 135 120" fill="none" xmlns="http://www.w3.org/2000/svg">
<path d="M0.628418 14.4822V80.6911C0.628418 88.6867 7.20228 95.1733 15.3183 95.1733H81.4978L104.754 120V95.1711H120.238C128.35 95.1711 134.928 88.6844 134.928 80.6889V14.4822C134.926 6.48445 128.35 0 120.238 0H15.3183C7.20228 0 0.628418 6.48445 0.628418 14.4822ZM94.1755 47.5844C94.1755 42.4444 98.4014 38.2756 103.619 38.2756C108.836 38.2756 113.062 42.4444 113.062 47.5844C113.062 52.7289 108.836 56.8956 103.619 56.8956C98.4014 56.8956 94.1755 52.7311 94.1755 47.5844ZM58.3338 47.5844C58.3338 42.4444 62.5641 38.2756 67.7771 38.2756C72.9901 38.2756 77.2205 42.4444 77.2205 47.5844C77.2205 52.7289 72.9901 56.8956 67.7771 56.8956C62.5641 56.8956 58.3338 52.7311 58.3338 47.5844ZM22.4943 47.5844C22.4943 42.4444 26.7246 38.2756 31.9376 38.2756C37.1551 38.2756 41.381 42.4444 41.381 47.5844C41.381 52.7289 37.1551 56.8956 31.9376 56.8956C26.7224 56.8978 22.4943 52.7311 22.4943 47.5844Z" fill="#131316" fill-opacity="0.05"/>
</svg>
